<svg version="1.0" xmlns="http://www.w3.org/2000/svg" viewBox="0 0 50.000000 50.000000"
 preserveAspectRatio="xMidYMid meet">
<g transform="translate(0.000000,50.000000) scale(0.100000,-0.100000)">
<path d="M154 461 c-75 -34 -130 -129 -122 -212 2 -25 -3 -39 -17 -51 -20 -17
-20 -17 5 -89 30 -85 44 -97 97 -83 32 7 38 13 37 34 0 14 -4 35 -8 48 -5 16
-3 22 8 22 8 0 19 8 24 17 8 13 11 10 17 -18 10 -45 25 -65 36 -47 5 7 9 26 9
41 0 16 4 26 10 22 6 -3 10 -19 10 -35 0 -57 32 -44 45 19 6 28 9 31 17 18 5
-9 16 -17 24 -17 11 0 13 -6 8 -23 -4 -12 -8 -33 -8 -47 -1 -21 5 -27 37 -34
53 -14 67 -2 97 83 25 72 25 72 5 89 -14 12 -19 26 -17 51 8 83 -47 178 -122
212 -53 24 -139 24 -192 0z m-13 -77 c16 -15 22 -15 63 1 44 17 48 17 92 0 43
-16 46 -16 65 1 20 18 21 18 36 -1 26 -34 43 -83 43 -123 0 -33 -3 -38 -22
-38 -16 1 -24 -7 -31 -31 -12 -41 -32 -42 -52 -2 -18 34 -37 34 -45 -2 l-6
-24 -7 25 c-4 14 -7 34 -7 45 0 11 -5 27 -10 35 -14 21 -26 1 -36 -59 -6 -38
-8 -42 -13 -22 -9 36 -28 36 -46 2 -20 -40 -40 -39 -52 2 -7 24 -15 32 -31 31
-19 0 -22 5 -22 38 0 51 37 138 58 138 3 0 13 -7 23 -16z"/>
</g>
</svg>
