<svg version="1.0" xmlns="http://www.w3.org/2000/svg" viewBox="0 0 324.000000 324.000000" preserveAspectRatio="xMidYMid meet">
<g transform="translate(0.000000,324.000000) scale(0.100000,-0.100000)" stroke="none" fill="url(#gradient)">
<path d="M842 3230 c-139 -19 -278 -71 -397 -148 -234 -152 -382 -376 -430
-651 -22 -124 -22 -1509 0 -1634 64 -367 327 -656 700 -768 l80 -24 825 0 825
0 80 24 c373 112 636 401 700 768 22 125 22 1510 0 1634 -48 275 -196 499
-430 651 -94 61 -169 93 -300 130 -79 22 -88 22 -835 24 -415 1 -783 -2 -818
-6z m1066 -1107 c72 -54 94 -147 51 -223 -22 -39 -82 -80 -117 -80 -11 0 -35
-14 -53 -32 -19 -18 -54 -50 -79 -71 -25 -22 -98 -90 -164 -151 -136 -128
-143 -133 -166 -118 -14 9 -22 6 -41 -14 -12 -13 -30 -24 -39 -24 -9 0 -42
-27 -73 -59 -48 -50 -57 -65 -57 -96 0 -64 38 -111 95 -116 45 -3 64 2 100 31
74 59 158 61 222 5 26 -22 27 -25 11 -41 -15 -16 -18 -15 -46 5 -47 33 -96 28
-160 -16 -48 -33 -62 -38 -112 -38 -97 1 -160 65 -160 165 0 62 15 92 74 150
25 24 46 51 46 59 0 8 12 27 26 42 22 23 24 29 13 47 -15 24 -19 20 205 260
95 102 163 185 167 200 13 61 55 113 109 135 30 13 121 1 148 -20z m212 -572
c13 -25 13 -215 0 -262 -10 -35 -41 -59 -76 -59 -26 0 -64 47 -64 79 0 32 39
71 71 71 17 0 19 8 19 64 l0 63 -65 -15 -65 -16 0 -117 c0 -108 -2 -120 -22
-143 -33 -36 -75 -39 -108 -6 -40 40 -10 120 45 120 25 0 25 2 25 83 0 45 4
87 8 94 6 10 173 59 209 62 7 1 17 -8 23 -18z"/>
<path d="M1754 2081 c-50 -30 -67 -97 -39 -151 49 -94 198 -69 212 36 6 52
-10 90 -49 114 -41 25 -84 25 -124 1z"/>
<path d="M1636 1901 c-14 -16 -12 -20 32 -64 45 -45 49 -47 63 -30 14 16 11
22 -32 65 -44 44 -48 46 -63 29z"/>
<path d="M1460 1704 l-123 -136 31 -31 31 -30 53 45 c29 25 91 82 138 126 l85
80 -40 41 c-21 23 -42 41 -46 41 -4 0 -62 -61 -129 -136z"/>
<path d="M2041 1320 c-16 -9 -6 -30 15 -30 15 0 20 25 6 34 -4 2 -14 1 -21 -4z"/>
<path d="M1845 1270 c-8 -14 3 -30 21 -30 8 0 14 9 14 20 0 21 -24 28 -35 10z"/>
</g>
<defs>
    <linearGradient id="gradient" x1="0" x2="1" y1="0" y2="1" gradientTransform="rotate(60)">
      <stop offset="0%" stop-color="#B1045A" />
      <stop offset="50%" stop-color="#3C096B" />
      <stop offset="100%" stop-color="#B1045A" />
    </linearGradient>
 </defs>
</svg>
