<svg version="1.0" xmlns="http://www.w3.org/2000/svg"
 width="50.000000pt" height="50.000000pt" viewBox="0 0 50.000000 50.000000"
 preserveAspectRatio="xMidYMid meet">
<g transform="translate(0.000000,50.000000) scale(0.100000,-0.100000)"
fill="#000000" stroke="none">
<path d="M125 484 c-66 -34 -111 -104 -121 -185 -13 -112 39 -209 139 -259
101 -50 204 -34 285 43 53 51 89 135 64 151 -4 2 -30 -2 -59 -9 -94 -25 -186
17 -234 105 -8 14 -16 56 -19 94 -3 38 -9 71 -15 73 -5 1 -23 -4 -40 -13z m29
-177 c25 -50 99 -114 150 -128 23 -7 60 -11 84 -11 23 0 42 -3 42 -7 0 -10
-48 -54 -82 -76 -19 -12 -47 -17 -95 -16 -57 0 -73 4 -107 28 -51 36 -72 67
-88 126 -15 60 1 129 40 170 l27 28 6 -38 c3 -21 13 -55 23 -76z"/>
</g>
</svg>
