<svg version="1.0" xmlns="http://www.w3.org/2000/svg"
 width="50.000000pt" height="50.000000pt" viewBox="0 0 50.000000 50.000000"
 preserveAspectRatio="xMidYMid meet">
<g transform="translate(0.000000,50.000000) scale(0.100000,-0.100000)"
fill="#000000" stroke="none">
<path d="M237 494 c-4 -4 -7 -22 -7 -41 0 -27 4 -33 21 -33 17 0 20 5 17 37
-3 35 -17 51 -31 37z"/>
<path d="M70 417 c0 -8 11 -24 25 -37 19 -18 28 -21 37 -12 9 9 6 18 -12 37
-25 27 -50 33 -50 12z"/>
<path d="M380 405 c-18 -19 -21 -28 -12 -37 9 -9 18 -6 37 12 27 25 33 50 12
50 -8 0 -24 -11 -37 -25z"/>
<path d="M216 370 c-118 -36 -118 -206 1 -239 92 -26 178 60 152 153 -10 35
-59 86 -84 86 -7 0 -19 2 -27 4 -7 2 -26 0 -42 -4z m95 -59 c39 -40 39 -82 0
-122 -20 -20 -39 -29 -61 -29 -43 0 -90 47 -90 90 0 43 47 90 90 90 22 0 41
-9 61 -29z"/>
<path d="M5 260 c-11 -18 5 -30 41 -30 27 0 34 4 34 20 0 16 -7 20 -34 20 -19
0 -38 -4 -41 -10z"/>
<path d="M420 250 c0 -18 5 -21 38 -18 25 2 37 8 37 18 0 10 -12 16 -37 18
-33 3 -38 0 -38 -18z"/>
<path d="M92 117 c-25 -26 -29 -47 -9 -47 19 0 60 47 52 59 -9 16 -19 13 -43
-12z"/>
<path d="M365 129 c-8 -12 33 -59 52 -59 20 0 15 24 -10 48 -26 25 -33 27 -42
11z"/>
<path d="M232 43 c2 -26 8 -38 18 -38 10 0 16 12 18 38 3 32 0 37 -18 37 -18
0 -21 -5 -18 -37z"/>
</g>
</svg>
