<svg version="1.0" xmlns="http://www.w3.org/2000/svg"
 width="50.000000pt" height="50.000000pt" viewBox="0 0 50.000000 50.000000"
 preserveAspectRatio="xMidYMid meet">
<g transform="translate(0.000000,50.000000) scale(0.100000,-0.100000)"
fill="#ffffff" stroke="none">
<path d="M167 484 c-4 -4 -7 -16 -7 -26 0 -15 -8 -18 -55 -18 -30 0 -55 -4
-55 -10 0 -5 4 -10 10 -10 6 0 11 -76 12 -192 l3 -193 108 -3 c73 -2 107 1
102 8 -3 6 -46 10 -101 10 l-94 0 0 185 0 185 140 0 140 0 0 -95 c0 -57 4 -95
10 -95 6 0 10 38 10 95 0 57 4 95 10 95 6 0 10 5 10 10 0 6 -24 10 -54 10 -49
0 -55 2 -58 23 -3 20 -9 22 -63 25 -34 2 -64 0 -68 -4z m113 -29 c0 -11 -12
-15 -50 -15 -38 0 -50 4 -50 15 0 11 12 15 50 15 38 0 50 -4 50 -15z"/>
<path d="M160 235 c0 -83 4 -135 10 -135 6 0 10 52 10 135 0 83 -4 135 -10
135 -6 0 -10 -52 -10 -135z"/>
<path d="M220 235 c0 -83 4 -135 10 -135 6 0 10 52 10 135 0 83 -4 135 -10
135 -6 0 -10 -52 -10 -135z"/>
<path d="M280 274 c0 -61 4 -93 10 -89 6 3 10 46 10 96 0 53 -4 89 -10 89 -6
0 -10 -39 -10 -96z"/>
<path d="M331 196 c-87 -48 -50 -186 49 -186 51 0 100 49 100 99 0 75 -83 124
-149 87z m104 -31 c50 -49 15 -135 -55 -135 -41 0 -80 39 -80 80 0 41 39 80
80 80 19 0 40 -9 55 -25z"/>
<path d="M340 142 c0 -4 5 -13 12 -20 8 -8 8 -15 -2 -27 -17 -20 -5 -32 15
-15 12 10 18 10 30 0 20 -17 32 -5 15 15 -10 12 -10 18 0 30 17 20 5 32 -15
15 -12 -10 -19 -10 -27 -2 -14 14 -28 16 -28 4z"/>
</g>
</svg>
