<?xml version="1.0" standalone="no"?>
<!DOCTYPE svg PUBLIC "-//W3C//DTD SVG 20010904//EN"
 "http://www.w3.org/TR/2001/REC-SVG-20010904/DTD/svg10.dtd">
<svg version="1.0" xmlns="http://www.w3.org/2000/svg"
 width="50.000000pt" height="50.000000pt" viewBox="0 0 50.000000 50.000000"
 preserveAspectRatio="xMidYMid meet">

<g transform="translate(0.000000,50.000000) scale(0.100000,-0.100000)"
fill="#000000" stroke="none">
<path d="M167 486 c-55 -21 -103 -61 -134 -114 -24 -40 -28 -58 -28 -123 0
-67 4 -81 30 -125 99 -159 326 -164 425 -8 101 160 -4 368 -192 380 -39 3 -77
-1 -101 -10z m73 -61 c0 -45 0 -45 -35 -45 -19 0 -35 3 -35 8 0 17 53 82 67
82 2 0 3 -20 3 -45z m70 0 c27 -43 26 -45 -15 -45 -35 0 -35 0 -35 45 0 53 17
53 50 0z m-157 -10 c-13 -28 -23 -35 -45 -35 -38 0 -35 14 9 45 50 33 56 32
36 -10z m230 10 c44 -31 47 -45 9 -45 -22 0 -32 7 -45 35 -20 42 -14 43 36 10z
m-257 -91 c-3 -9 -6 -29 -6 -45 0 -28 -2 -29 -45 -29 -49 0 -52 6 -34 59 10
28 15 31 51 31 32 0 39 -3 34 -16z m114 -29 l0 -45 -45 0 c-43 0 -45 1 -45 29
0 50 9 61 51 61 l39 0 0 -45z m104 29 c3 -9 6 -29 6 -45 0 -28 -2 -29 -45 -29
l-45 0 0 45 0 45 39 0 c26 0 41 -5 45 -16z m115 -15 c18 -53 15 -59 -34 -59
-43 0 -45 1 -45 29 0 16 -3 36 -6 45 -5 13 2 16 34 16 36 0 41 -3 51 -31z
m-339 -108 c0 -16 3 -36 6 -45 5 -13 -2 -16 -34 -16 -36 0 -41 3 -51 31 -18
53 -15 59 34 59 43 0 45 -1 45 -29z m120 -16 l0 -45 -39 0 c-42 0 -51 11 -51
61 0 28 2 29 45 29 l45 0 0 -45z m110 16 c0 -50 -9 -61 -51 -61 l-39 0 0 45 0
45 45 0 c43 0 45 -1 45 -29z m120 15 c0 -7 -5 -27 -11 -45 -10 -28 -15 -31
-51 -31 -32 0 -39 3 -34 16 3 9 6 29 6 45 0 28 2 29 45 29 31 0 45 -4 45 -14z
m-317 -141 c20 -42 14 -43 -36 -10 -44 31 -47 45 -9 45 22 0 32 -7 45 -35z
m87 -10 c0 -53 -17 -53 -50 0 -27 43 -26 45 15 45 35 0 35 0 35 -45z m90 39
c0 -14 -41 -72 -55 -78 -12 -4 -15 4 -15 39 0 45 0 45 35 45 19 0 35 -3 35 -6z
m90 -4 c0 -10 -69 -60 -82 -60 -4 0 0 16 9 35 13 28 23 35 45 35 15 0 28 -4
28 -10z"/>
</g>
</svg>
